<svg width="48" height="49" viewBox="0 0 48 49" fill="none" xmlns="http://www.w3.org/2000/svg">
<path d="M17.8228 1.02029C9.86 2.94957 2.68229 10.2128 0.588796 18.4217C-0.196265 21.4858 -0.196265 27.7654 0.588796 30.8296C2.68229 39.0763 9.93477 46.3395 17.9723 48.2688C21.0378 48.9875 26.7949 48.9875 29.8604 48.2688C37.9727 46.3017 45.3373 38.8494 47.2813 30.6404C48.029 27.425 47.9916 21.3723 47.2439 18.4217C45.1504 10.1749 37.8979 2.91174 29.8604 0.982458C26.8697 0.301535 20.7387 0.301535 17.8228 1.02029ZM22.421 7.79169V11.7637H19.4303C17.7854 11.7637 16.4396 11.6503 16.4396 11.5368C16.4396 11.4233 16.9629 10.2884 17.5985 9.07788C18.6078 7.18643 21.5612 3.81964 22.2341 3.81964C22.3462 3.81964 22.421 5.5976 22.421 7.79169ZM28.1407 6.05155C29.2996 7.33774 31.3931 10.8937 31.3931 11.5746C31.3931 11.6881 30.0473 11.7637 28.4024 11.7637H25.4117V7.79169C25.4117 3.21437 25.5612 3.13872 28.1407 6.05155ZM15.2059 6.54333C14.7199 7.45123 14.0096 8.96439 13.6358 9.94795L12.9629 11.7637H10.1217H7.3179L9.29924 9.72097C10.8694 8.13215 15.3181 4.95451 15.991 4.95451C16.0657 4.95451 15.7293 5.67326 15.2059 6.54333ZM38.1222 9.38051L40.5522 11.7259L37.711 11.7637H34.8698L34.1969 9.94795C33.8231 8.96439 33.1128 7.4134 32.5894 6.5055L31.6174 4.84102L33.6362 5.93807C34.7577 6.54333 36.7764 8.09432 38.1222 9.38051ZM11.804 16.1897C11.6918 16.9842 11.4675 18.8756 11.318 20.3509L11.0937 23.1125H7.05621C4.81318 23.1125 2.98137 23.0368 2.98137 22.9611C2.98137 22.1289 3.8412 18.6486 4.47672 16.9463L5.26178 14.7901H8.66372H12.0657L11.804 16.1897ZM22.421 18.9513V23.1125H18.3088H14.1965L14.3835 21.4858C14.533 20.6157 14.7947 18.7621 15.019 17.3246L15.3928 14.7901H18.9069H22.421V18.9513ZM32.8137 17.3246C33.038 18.7621 33.2997 20.6157 33.4492 21.4858L33.6362 23.1125H29.5239H25.4117V18.9513V14.7901H28.9258H32.4399L32.8137 17.3246ZM43.356 16.9463C43.9915 18.6486 44.8513 22.1289 44.8513 22.9611C44.8513 23.0368 43.0195 23.1125 40.7765 23.1125H36.739L36.5147 20.3509C36.3652 18.8756 36.1409 16.9842 36.0287 16.1897L35.767 14.7901H39.169H42.5709L43.356 16.9463ZM11.318 28.8625C11.4675 30.3756 11.6918 32.2671 11.804 33.0237L12.0657 34.4612H8.66372H5.26178L4.47672 32.3049C3.8412 30.6026 2.98137 27.1223 2.98137 26.2901C2.98137 26.2144 4.81318 26.1388 7.05621 26.1388H11.0937L11.318 28.8625ZM22.421 30.3V34.4612H18.9069H15.3928L15.019 31.8888C14.7947 30.4891 14.533 28.6355 14.3835 27.7276L14.1965 26.1388H18.3088H22.421V30.3ZM33.4492 27.7276C33.2997 28.6355 33.038 30.4891 32.8137 31.8888L32.4399 34.4612H28.9258H25.4117V30.3V26.1388H29.5239H33.6362L33.4492 27.7276ZM44.8513 26.2901C44.8513 27.1223 43.9915 30.6026 43.356 32.3049L42.5709 34.4612H39.169H35.767L36.0287 33.0237C36.1409 32.2671 36.3652 30.3756 36.5147 28.8625L36.739 26.1388H40.7765C43.0195 26.1388 44.8513 26.2144 44.8513 26.2901ZM13.6358 39.2655C14.0096 40.2869 14.7199 41.8379 15.2433 42.7458L16.2153 44.4102L14.1965 43.3132C13.075 42.7079 11.0563 41.1569 9.71047 39.8707L7.28051 37.5253L10.1217 37.4875H12.9629L13.6358 39.2655ZM22.421 41.4596C22.421 46.0369 22.2715 46.1125 19.692 43.1997C18.5331 41.9135 16.4396 38.3576 16.4396 37.6767C16.4396 37.5632 17.7854 37.4875 19.4303 37.4875H22.421V41.4596ZM31.3931 37.6767C31.3931 38.3576 29.2996 41.9135 28.1407 43.1997C25.5612 46.1125 25.4117 46.0369 25.4117 41.4596V37.4875H28.4024C30.0473 37.4875 31.3931 37.5632 31.3931 37.6767ZM38.1222 39.8707C36.7764 41.1569 34.7577 42.7079 33.6362 43.3132L31.6174 44.4102L32.5894 42.7458C33.1128 41.8379 33.8231 40.2869 34.1969 39.2655L34.8698 37.4875H37.711L40.5522 37.5253L38.1222 39.8707Z" fill="black"/>
</svg>
