<svg width="56" height="61" viewBox="0 0 56 61" fill="none" xmlns="http://www.w3.org/2000/svg">
<path d="M34.1683 0.988112C41.8957 3.06071 49.2506 9.23141 52.7419 16.5797C55.9073 23.2215 56.7452 29.3922 55.3487 36.2223C54.1849 42.0633 51.5316 47.1035 47.3421 51.39C41.1974 57.6549 34.7269 60.3398 25.8824 60.3398C17.2706 60.3398 11.0794 57.7491 4.98136 51.5784C2.84005 49.4116 1.21079 47.4803 1.35044 47.2448C1.49009 47.0093 2.4211 46.6795 3.39865 46.4911C4.42275 46.3498 6.98302 45.3135 9.12433 44.2301C12.1501 42.7227 13.8724 41.4509 16.7586 38.4833C22.8566 32.3126 25.5566 26.0006 25.5566 17.9457C25.5566 12.4345 24.8583 9.37272 22.5308 4.52095C21.5532 2.40125 20.7153 0.564171 20.7153 0.375753C20.7153 -0.377919 30.7236 0.093126 34.1683 0.988112Z" fill="#0A0B0B"/>
<path d="M7.40172 16.5327L8.14653 18.4169L10.2878 18.0872C12.6619 17.7574 12.6619 17.7574 10.893 20.3482C10.0551 21.5729 10.0551 21.62 11.2188 23.1744C12.4757 24.9173 12.2429 25.1999 9.77578 24.9173C8.33273 24.7289 8.14653 24.8702 7.40172 26.5189C6.98277 27.5081 6.47072 28.3088 6.28452 28.3088C6.05177 28.3088 5.58626 27.5081 5.21386 26.566C4.56216 24.8702 4.46906 24.8231 2.32775 24.9644L0.139889 25.1057L1.35019 23.3158C2.5605 21.4787 2.5605 21.3845 0.838142 18.935L0.000238461 17.8045L2.23465 18.0872L4.51561 18.4169L5.21386 16.5327C5.63281 15.4964 6.09832 14.6485 6.28452 14.6485C6.47072 14.6485 6.98277 15.4964 7.40172 16.5327Z" fill="#0A0B0B"/>
</svg>
