<svg xmlns="http://www.w3.org/2000/svg" width="57" height="58" viewBox="0 0 57 58" fill="none">
  <path d="M8.76764 8.31564C7.61047 8.80521 6.80936 10.5855 7.20991 11.7426C7.34343 12.1877 8.5006 13.6119 9.74679 14.8581C12.2392 17.484 13.7969 17.8845 15.3546 16.3268C16.9123 14.7691 16.5118 13.2114 13.9304 10.6745C11.349 8.18212 10.3254 7.73706 8.76764 8.31564Z" fill="#CCFF00"/>
  <path d="M45.6192 8.18211C45.2631 8.31563 43.8834 9.42829 42.6373 10.6745C40.0114 13.2113 39.6108 14.7691 41.1685 16.3268C42.7263 17.8845 44.284 17.484 46.9544 14.7691C48.7792 12.8998 49.3132 12.0542 49.3132 10.986C49.3132 8.98323 47.3995 7.55902 45.6192 8.18211Z" fill="#CCFF00"/>
  <path d="M26.5468 2.64586C26.3799 2.98753 26.1422 4.74398 26.0932 6.50566C25.9289 10.1531 26.7084 11.56 28.9105 11.6212C31.1126 11.6824 31.969 10.321 32.0433 6.5136C32.0844 3.90166 31.8913 2.92032 31.1573 2.14433C29.781 0.689342 27.412 0.969819 26.5468 2.64586Z" fill="#CCFF00"/>
  <path d="M25.9028 15.0361C14.2421 16.9053 9.83598 31.281 18.3367 39.6927C25.5913 46.8137 38.3647 43.7873 41.8807 34.0849C42.7708 31.5925 42.7708 26.8748 41.8807 24.3824C39.5663 17.929 32.7568 13.9234 25.9028 15.0361Z" fill="#CCFF00"/>
  <path d="M1.11266 26.6968C0.178026 27.1864 0 27.5869 0 29.2337C0 31.6815 1.02365 32.3491 4.94022 32.3491C7.03203 32.3491 7.92216 32.1266 8.8568 31.4145C10.4145 30.1683 10.4145 28.299 8.8568 27.0528C7.47709 25.9402 2.98194 25.7622 1.11266 26.6968Z" fill="#CCFF00"/>
  <path d="M47.6668 27.0528C46.1091 28.299 46.1091 30.1683 47.6668 31.4145C48.6015 32.1266 49.4916 32.3491 51.5834 32.3491C55.5 32.3491 56.5236 31.6815 56.5236 29.2337C56.5236 26.7858 55.5 26.1182 51.5834 26.1182C49.4916 26.1182 48.6015 26.3407 47.6668 27.0528Z" fill="#CCFF00"/>
  <path d="M9.56894 43.6983C6.98756 46.2797 6.49799 48.149 7.9222 49.5732C9.3464 50.9974 11.2157 50.5078 13.7971 47.9264C16.512 45.256 16.9125 43.6983 15.3548 42.1406C13.7971 40.5828 12.2393 40.9834 9.56894 43.6983Z" fill="#CCFF00"/>
  <path d="M41.1683 42.1406C39.6106 43.6983 40.0111 45.256 42.726 47.9264C45.3074 50.5078 47.1767 50.9974 48.6009 49.5732C50.0251 48.149 49.5355 46.2797 46.9542 43.6983C44.2838 40.9834 42.726 40.5828 41.1683 42.1406Z" fill="#CCFF00"/>
  <path d="M26.0806 48.6386C25.3685 49.5732 25.146 50.4633 25.146 52.5551C25.146 56.4717 25.8136 57.4954 28.2615 57.4954C30.7093 57.4954 31.3769 56.4717 31.3769 52.5551C31.3769 50.4633 31.1544 49.5732 30.4423 48.6386C29.1961 47.0808 27.3268 47.0808 26.0806 48.6386Z" fill="#CCFF00"/>
</svg>
