<svg width="550" height="351" viewBox="0 0 550 351" xmlns="http://www.w3.org/2000/svg"
fill="">
  <g clip-path="url(#clip0_1723_666)">
    <path
      d="M550 28.6546C550 29.0894 549.991 29.5241 549.974 29.95C549.974 30.0831 549.956 30.2073 549.938 30.3404C549.929 30.7486 549.903 31.139 549.85 31.5205C549.858 31.556 549.85 31.5826 549.85 31.6004C549.805 32.0174 549.761 32.4344 549.69 32.8337C549.628 33.3129 549.548 33.7742 549.459 34.2445C549.432 34.3687 549.406 34.5018 549.37 34.6349C549.184 35.5755 548.936 36.4805 548.643 37.3855C548.527 37.7671 548.403 38.1397 548.261 38.5124C548.102 38.956 547.933 39.3908 547.747 39.8167L511.927 129.371C511.918 129.416 511.891 129.451 511.873 129.495L511.11 131.421C511.11 131.456 511.093 131.474 511.075 131.483C506.949 140.817 497.952 147.525 487.304 148.395C487.287 148.404 487.278 148.404 487.26 148.395H487.242L482.628 148.404C482.611 148.412 482.602 148.412 482.575 148.404L328.053 148.448H328.027H324.549H324.531C309.518 147.543 297.628 135.094 297.628 119.851C297.628 111.51 301.186 104.004 306.865 98.7772C306.883 98.7506 306.909 98.7328 306.936 98.7151L308.844 97.1179C308.852 97.1002 308.879 97.0736 308.879 97.0736L415.381 7.66128L417.572 5.82458C421.663 2.70131 426.605 0.651683 431.991 0.0838114H438.051L519.824 0.00394694H519.832H522.725C522.743 -0.00493367 522.769 0.00394694 522.787 0.00394694C537.942 0.77589 550 13.2956 550 28.6546Z"
    />
    <path
      d="M462.958 246.235C462.958 249.713 462.345 253.04 461.21 256.128C461.05 256.563 460.873 256.997 460.695 257.432L431.477 330.483C431.477 330.501 431.468 330.51 431.468 330.51L429.897 334.476C429.88 334.52 429.862 334.556 429.844 334.591C425.621 343.207 417.218 349.409 407.254 350.518H400.75H400.732L247.594 350.553C247.577 350.562 247.568 350.553 247.568 350.553H241.588H241.57C227.16 349.054 215.945 336.871 215.945 322.08C215.945 318.771 216.504 315.576 217.551 312.613C217.551 312.586 217.56 312.568 217.577 312.542L218.429 310.412L218.438 310.386L271.117 178.029C271.117 178.011 271.125 178.011 271.125 178.011L273.157 172.918C273.157 172.9 273.166 172.882 273.166 172.882C277.505 164.497 285.854 158.517 295.677 157.497H301.684C301.701 157.488 301.719 157.497 301.719 157.497L319.172 157.488H319.19H325.073H325.082C327.859 157.772 330.521 158.446 333.005 159.466L338.249 162.288L445.771 219.909C445.771 219.909 445.798 219.909 445.806 219.926L449.684 222.012C449.702 222.012 449.71 222.02 449.71 222.02C457.687 227.131 462.958 236.075 462.958 246.235Z"
    />
    <path
      d="M313.862 28.5216C313.862 31.9909 313.249 35.3005 312.122 38.3705C311.963 38.8053 311.794 39.2401 311.608 39.666L194.645 332.072C194.618 332.152 194.583 332.241 194.556 332.321C194.441 332.631 194.326 332.951 194.184 333.252C194.139 333.377 194.095 333.492 194.042 333.616C190.058 342.853 181.362 349.579 170.981 350.741C170.963 350.75 170.946 350.75 170.937 350.741L164.566 350.75L31.2948 350.874H26.0243C11.4372 349.57 0 337.298 0 322.374C0 318.967 0.594507 315.702 1.68587 312.676L2.39569 310.91L119.208 18.8501C119.216 18.8146 119.234 18.7791 119.243 18.7437L119.864 17.2264C123.901 7.88318 132.792 1.11316 143.351 0.0927734H288.627C302.841 1.7609 313.862 13.8547 313.862 28.5216Z"
    />
  </g>
  <defs>
    <clipPath id="clip0_1723_666">
      <rect width="550" height="351" fill="white"/>
    </clipPath>
  </defs>
</svg>
