<svg width="866" height="683" viewBox="0 0 866 683" fill="none" xmlns="http://www.w3.org/2000/svg">
<path d="M658.57 129.76H534.35C533.554 129.76 532.791 130.076 532.229 130.638C531.666 131.201 531.35 131.964 531.35 132.76V164.13C531.35 164.925 531.666 165.688 532.229 166.251C532.791 166.814 533.554 167.13 534.35 167.13H545.53V177.47L558.53 167.13H658.53C659.326 167.13 660.089 166.814 660.651 166.251C661.214 165.688 661.53 164.925 661.53 164.13V132.77C661.533 131.979 661.223 131.22 660.669 130.656C660.115 130.092 659.361 129.77 658.57 129.76Z" fill="#0A0B0B"/>
<path d="M251.91 434.93C251.91 434.93 251.75 447.51 255.58 450.62C258.785 447.809 261.268 444.27 262.82 440.3C259.062 438.768 255.416 436.973 251.91 434.93Z" fill="#CCFF00"/>
<path d="M518.4 584.93L531.74 449.7C531.74 449.7 591.55 460.36 616.92 449.7L611.77 584.93H578L574.33 494.18L557 584.93H518.4Z" fill="#3F3D56"/>
<path d="M518.4 584.93L531.74 449.7C531.74 449.7 591.55 460.36 616.92 449.7L611.77 584.93H578L574.33 494.18L557 584.93H518.4Z" fill="#0A0B0B"/>
<path d="M271 495.56C271 495.56 267.69 456.41 290 427.19C290 427.19 297.72 441.25 331.08 437.94C331.08 437.94 347.54 435.02 355.16 430.69C355.16 430.69 368.3 459.45 367.47 490.32C367.47 490.32 362.47 578.08 360.85 584.93H329.46C329.46 584.93 318.71 507.69 317.88 498C317.88 498 317.88 562.61 320.64 584.89H287.56C287.56 584.89 269.25 522.68 271 495.56Z" fill="#0A0B0B"/>
<path d="M268 418.64L269.38 371.78C270.76 344.21 310.11 339.68 310.11 339.68C310.11 339.68 348.51 335.38 360.11 342.28L406.7 378.5L403.39 436.29L385.19 453.66C385.19 453.66 369.75 426.66 370.58 421.4L389.88 405.4C389.88 405.4 364.24 388.31 361.76 383.62C361.76 383.62 344.76 416.43 361.21 444.82C361.21 444.82 345.77 457.51 327.02 459.44C327.02 459.44 321.6 379.76 333.55 344.75C333.55 344.75 319.92 353.75 308.37 344.75C308.37 344.75 297.8 365.98 299.73 399.33C299.73 399.33 304.42 446.75 299.73 457.78C299.73 457.78 281.38 453.85 278.07 449.17C278.07 449.17 280.64 444.24 283.74 432.42C283.74 432.42 278.74 450.61 255.62 450.61C255.58 450.62 267.35 440.15 268 418.64Z" fill="#CCFF00"/>
<path d="M404.75 445.72L383.5 584.93H417.69L438.74 493.75C438.919 492.936 439.371 492.207 440.02 491.683C440.669 491.16 441.476 490.873 442.31 490.87C443.145 490.869 443.954 491.155 444.604 491.679C445.254 492.203 445.704 492.934 445.88 493.75L466.94 584.93H502.6L482.31 445.72H404.75Z" fill="#0A0B0B"/>
<path d="M396.83 435.84V442.59C396.829 444.091 397.378 445.54 398.373 446.664C399.368 447.788 400.74 448.509 402.23 448.69C416.72 450.44 457.76 455.69 482.23 449.04C483.75 448.618 485.074 447.679 485.975 446.384C486.875 445.09 487.294 443.521 487.16 441.95L486.71 436.75L438 424.6L396.83 435.84Z" fill="#3F3D56"/>
<path d="M396.83 435.84V442.59C396.829 444.091 397.378 445.54 398.373 446.664C399.368 447.788 400.74 448.509 402.23 448.69C416.72 450.44 457.76 455.69 482.23 449.04C483.75 448.618 485.074 447.679 485.975 446.384C486.875 445.09 487.294 443.521 487.16 441.95L486.71 436.75L438 424.6L396.83 435.84Z" fill="#CCFF00"/>
<path opacity="0.2" d="M396.83 435.84V442.59C396.829 444.091 397.378 445.54 398.373 446.664C399.368 447.788 400.74 448.509 402.23 448.69C416.72 450.44 457.76 455.69 482.23 449.04C483.75 448.618 485.074 447.679 485.975 446.384C486.875 445.09 487.294 443.521 487.16 441.95L486.71 436.75L438 424.6L396.83 435.84Z" fill="white"/>
<path d="M489 408.4L426.51 397.4L419.65 411.86L417 418.31L438.81 427.19C438.81 427.19 500.31 451.03 508.89 430.45C508.89 430.45 514.08 421.72 509.18 402.65C509.001 401.958 508.858 401.257 508.75 400.55C507.75 394.27 501.69 359.76 481.44 351.3C481.44 351.3 466.99 345.42 462.82 344.69H421.13C421.13 344.69 390.51 349.01 382.91 372.13C382.91 372.13 371.91 399.05 372.13 418.31C372.13 418.31 370.41 437.56 387.81 438.31C387.81 438.31 423.09 438.16 438.81 427.21L417 418.31L419.69 411.83C414.736 411.264 409.734 411.264 404.78 411.83C404.78 411.83 408.18 402.98 408.42 394.4" fill="#CCFF00"/>
<path opacity="0.2" d="M489 408.4L426.51 397.4L419.65 411.86L417 418.31L438.81 427.19C438.81 427.19 500.31 451.03 508.89 430.45C508.89 430.45 514.08 421.72 509.18 402.65C509.001 401.958 508.858 401.257 508.75 400.55C507.75 394.27 501.69 359.76 481.44 351.3C481.44 351.3 466.99 345.42 462.82 344.69H421.13C421.13 344.69 390.51 349.01 382.91 372.13C382.91 372.13 371.91 399.05 372.13 418.31C372.13 418.31 370.41 437.56 387.81 438.31C387.81 438.31 423.09 438.16 438.81 427.21L417 418.31L419.69 411.83C414.736 411.264 409.734 411.264 404.78 411.83C404.78 411.83 408.18 402.98 408.42 394.4" fill="white"/>
<path opacity="0.2" d="M426.52 397.37C424.69 400.29 423.62 403.7 421.8 407.32C420.005 410.903 418.393 414.574 416.97 418.32C422.31 420.64 427.97 422.87 433.77 425.15C443.04 428.75 454.07 432.75 461.06 434.3C461.06 434.3 486.7 441.49 498.99 437.86C498.99 437.86 511.5 438.08 511.25 417.41L510.6 409.7L489 408.4L426.52 397.37Z" fill="black"/>
<path d="M425.3 338.36C425.3 338.36 441.58 332.79 457.06 338.08C455.39 340.88 453.58 343.75 451.59 346.68C448.28 351.58 444.93 356.02 441.67 360.01L425.3 338.36Z" fill="#CCFF00"/>
<path opacity="0.2" d="M425.3 338.36C425.3 338.36 441.58 332.79 457.06 338.08C455.39 340.88 453.58 343.75 451.59 346.68C448.28 351.58 444.93 356.02 441.67 360.01L425.3 338.36Z" fill="white"/>
<path d="M301.76 435.41C301.76 435.41 308.49 438.82 326.04 438.32L326.14 401.24C326.14 401.24 326.68 363.47 333.51 344.76C333.51 344.76 319.94 353.47 308.33 344.76C308.33 344.76 299 362.9 299.48 388.35C299.34 391.47 299.25 394.66 299.23 397.91C299.136 410.455 299.982 422.99 301.76 435.41Z" fill="#CCCCCC"/>
<path d="M298.67 306.32C298.67 306.32 293.78 284.4 303.85 279.48C303.85 279.48 314.85 271.75 325.64 278.31C325.64 278.31 345.08 275.03 347.19 297.31C347.19 297.31 346.02 328.47 352.57 339.71H334.77L294.95 343.71C294.95 343.71 301.21 320.75 298.67 306.32Z" fill="#0A0B0B"/>
<path opacity="0.2" d="M251.91 434.93C251.91 434.93 251.75 447.51 255.58 450.62C255.58 450.62 260.58 445.7 262.82 440.3C262.82 440.3 255.42 438 251.91 434.93Z" fill="#231F20"/>
<path d="M348.14 436C348.14 436 339.98 439.57 334.54 440.48C333.465 440.654 332.363 440.512 331.368 440.072C330.372 439.631 329.525 438.912 328.93 438L326.73 434.69C326.201 433.889 325.919 432.95 325.92 431.99V430.1C325.919 429.197 326.167 428.31 326.639 427.539C327.11 426.768 327.785 426.142 328.59 425.73C333.78 423.07 345.3 417.9 351.93 420.64C352.607 420.927 353.212 421.361 353.7 421.91C355.45 423.81 360.06 428.86 360.79 430.28C360.79 430.28 367.85 429.28 371.45 425.94C371.45 425.94 376.17 436.79 377.2 438.81C377.2 438.81 363.86 449.91 355.55 443.95C355.55 444 350.31 440.16 348.14 436Z" fill="#F9B499"/>
<path opacity="0.2" d="M284 418.31C284 418.31 286.16 400.96 284.9 390.49C284.9 390.49 288.33 407.65 286.53 418.31H284Z" fill="#231F20"/>
<path d="M278.92 458.74C277.624 458.739 276.334 458.554 275.09 458.19L275.29 457.58C275.61 457.69 283.15 460.15 286.14 453.89L286.76 454.12C286.061 455.582 284.941 456.803 283.545 457.626C282.148 458.449 280.538 458.837 278.92 458.74Z" fill="#3F3D56"/>
<g opacity="0.2">
<path d="M365.45 465.09C348.45 463.29 347.56 453.36 347.55 453.26L348.28 452.9C348.28 453 348.89 462.7 365.33 464.44L365.45 465.09Z" fill="#231F20"/>
</g>
<path d="M429.46 363.8L421.13 344.69L425.3 338.36L438.49 355.81L429.46 363.8Z" fill="#CCFF00"/>
<path d="M444.9 356.45L453.72 363.8L462.79 344.69L457.06 338.08L444.9 356.45Z" fill="#CCFF00"/>
<path d="M431.65 326.97L429.54 343.97L441.67 360.01L444.9 356.2L453.43 343.49L450.77 326.97H431.65Z" fill="#F9B499"/>
<path d="M408 399.34C408 399.34 421.78 399.07 424.83 401.05L419.71 411.83C419.71 411.83 407.46 410.9 404.8 411.83C404.75 411.86 407.54 403.47 408 399.34Z" fill="#F9B499"/>
<path d="M469.23 404.91C469.23 404.91 475.77 393.83 486.85 392.91C488.367 392.798 489.89 392.992 491.33 393.482C492.77 393.971 494.096 394.746 495.23 395.76C495.674 396.156 496.032 396.64 496.282 397.18C496.532 397.721 496.668 398.307 496.682 398.902C496.696 399.498 496.588 400.089 496.364 400.641C496.14 401.193 495.805 401.693 495.38 402.11L489 408.4L469.23 404.91Z" fill="#F9B499"/>
<path d="M567.94 318.29C567.94 318.29 567.94 318.55 567.88 319C567.55 322.7 565.88 339.76 562.15 341.73L563.53 351.08C563.53 351.08 580.89 355.75 588.06 351.08V339.08C588.06 339.08 586.27 339.21 586.27 337.84L586.55 332.32L567.94 318.29Z" fill="#F9B499"/>
<path d="M529.89 402.1L533.75 465.51C533.75 465.51 564.63 477.37 569.87 475.71C569.87 475.71 571.52 390.8 568.35 369.29L555.53 344.69C550.43 343.89 530.46 354.09 524.96 356.97C524.016 357.467 523.216 358.201 522.64 359.1C512.49 375.375 505.059 393.195 500.64 411.86C500.64 411.86 505.64 449.25 517.18 465.51C517.18 465.51 534 460.82 536.75 455.31C536.75 455.31 526.83 422.5 524.07 417.54C524.1 417.54 524.93 416.71 529.89 402.1Z" fill="#CCFF00"/>
<path d="M590 475.87L588.07 371.22L592.3 339.89C592.3 339.89 625.84 353.89 628.87 374.26L632.73 391.76L635.49 389.14L629.43 438.82C629.43 438.82 621.71 440.42 620.05 431.33L621.16 470.75C621.16 470.75 610.12 476 590 475.87Z" fill="#CCFF00"/>
<path opacity="0.2" d="M618.94 399.34L620.04 431.34C620.04 431.34 621.33 440.27 629.42 438.83L629.91 434.83C629.91 434.83 620.23 435 618.94 399.34Z" fill="black"/>
<path d="M520.68 464.43C520.68 464.43 522.45 475.43 529.25 478.74C529.25 478.74 539.83 473.42 544.37 469.37C544.37 469.37 548.37 473.6 550.02 473.6C550.568 473.604 551.106 473.458 551.576 473.178C552.047 472.898 552.431 472.495 552.689 472.012C552.946 471.529 553.067 470.984 553.037 470.438C553.007 469.891 552.829 469.363 552.52 468.91C550.62 466.28 548.271 464.005 545.58 462.19C542.793 460.424 539.55 459.51 536.25 459.56C535.205 459.653 534.162 459.358 533.32 458.73C533.32 458.73 524.84 464.36 520.68 464.43Z" fill="#F9B499"/>
<path d="M666.54 400.66L634.47 397.45L611.77 584.93H645.22L666.54 400.66Z" fill="#0A0B0B"/>
<path opacity="0.2" d="M624.42 580.2L644.87 398.49L655.51 399.35L635.48 584.93H623.78L624.42 580.2Z" fill="white"/>
<path d="M635.48 386.17L634.47 397.45L666.54 400.66L667.68 390.15L635.48 386.17Z" fill="black"/>
<path opacity="0.2" d="M635.48 386.17L634.47 397.45L666.54 400.66L667.68 390.15L635.48 386.17Z" fill="#0A0B0B"/>
<path d="M636.52 375L635.52 386.21L667.72 390.21L668.87 378C669.026 376.412 668.866 374.809 668.401 373.283C667.935 371.758 667.172 370.339 666.157 369.108C665.141 367.878 663.892 366.861 662.482 366.114C661.072 365.368 659.529 364.908 657.94 364.76L649.71 363.99C648.12 363.843 646.517 364.011 644.993 364.486C643.468 364.96 642.053 365.731 640.827 366.754C639.601 367.777 638.59 369.032 637.851 370.447C637.112 371.862 636.659 373.41 636.52 375Z" fill="#0A0B0B"/>
<path d="M653.89 365.69C653.89 365.69 646.77 377.33 664.23 381.43C664.23 381.43 672.64 384.23 672.86 373.56C672.86 373.56 673.72 361.17 658.2 359.44C658.2 359.44 644.39 357.7 643.53 364.74C643.466 365.247 643.511 365.762 643.661 366.251C643.811 366.739 644.063 367.19 644.401 367.574C644.738 367.958 645.154 368.266 645.619 368.477C646.084 368.689 646.589 368.799 647.1 368.8C648.71 368.78 650.94 368.07 653.89 365.69Z" fill="#F9B499"/>
<path d="M570.3 454.05C570.3 454.05 570.69 385.28 568.35 369.29C568.35 369.29 564.64 358.62 563.53 351.08C563.53 351.08 581.58 355.61 588.06 351.08V371.22L589.6 454.35L570.3 454.05Z" fill="#CCCCCC"/>
<path d="M199.43 364.65L252.31 370.72C253.277 370.837 254.189 371.235 254.934 371.864C255.678 372.493 256.222 373.326 256.5 374.26L273.63 432.79L259 431.15L210.63 422.86L196.1 368.52C195.967 368.034 195.956 367.522 196.067 367.031C196.178 366.539 196.408 366.082 196.737 365.7C197.065 365.318 197.483 365.022 197.952 364.839C198.422 364.656 198.929 364.591 199.43 364.65Z" fill="#0A0B0B"/>
<path d="M249.79 370.43H256.7C257.482 370.427 258.244 370.679 258.871 371.146C259.498 371.612 259.958 372.27 260.18 373.02L277 428.73L316.64 422.94C316.962 422.892 317.291 422.915 317.603 423.005C317.916 423.096 318.205 423.253 318.452 423.466C318.698 423.678 318.896 423.941 319.032 424.237C319.168 424.533 319.239 424.854 319.24 425.18C319.239 425.734 319.035 426.269 318.667 426.684C318.298 427.098 317.791 427.364 317.24 427.43L273.67 432.79L256.5 374.26C256.5 374.26 255.58 369.85 249.79 370.43Z" fill="black"/>
<path opacity="0.2" d="M249.79 370.43H256.7C257.482 370.427 258.244 370.679 258.871 371.146C259.498 371.612 259.958 372.27 260.18 373.02L277 428.73L316.64 422.94C316.962 422.892 317.291 422.915 317.603 423.005C317.916 423.096 318.205 423.253 318.452 423.466C318.698 423.678 318.896 423.941 319.032 424.237C319.168 424.533 319.239 424.854 319.24 425.18C319.239 425.734 319.035 426.269 318.667 426.684C318.298 427.098 317.791 427.364 317.24 427.43L273.67 432.79L256.5 374.26C256.5 374.26 255.58 369.85 249.79 370.43Z" fill="#231F20"/>
<path d="M273.48 417.16L314.42 423.26L276.96 428.73L273.48 417.16Z" fill="black"/>
<path d="M308.33 344.76C308.33 344.76 311.08 339.68 311.04 331.18L326.89 322.34L331.49 315.39L334.77 339.68L333.51 344.76C333.51 344.76 318.27 354.92 308.33 344.76Z" fill="#F9B499"/>
<path d="M234.57 417.4C233.329 417.083 232.025 417.108 230.796 417.472C229.568 417.836 228.461 418.526 227.593 419.468C226.724 420.41 226.127 421.569 225.864 422.823C225.602 424.077 225.683 425.379 226.1 426.59C227.39 430.59 231.1 434.93 241.1 434.93C241.1 434.93 248.27 434.77 251.94 434.93C251.94 434.93 258.6 439.45 262.85 440.3C264.168 437.513 265.259 434.624 266.11 431.66C266.11 431.66 250.5 431.9 245.8 425.2C245.77 425.2 240.44 418.94 234.57 417.4Z" fill="#F9B499"/>
<path d="M407.35 390.93L407.95 399.34C407.95 399.34 421.53 399.18 424.78 401.05L427.33 395.99L407.35 390.93Z" fill="#CCFF00"/>
<path opacity="0.2" d="M407.35 390.93L407.95 399.34C407.95 399.34 421.53 399.18 424.78 401.05L427.33 395.99L407.35 390.93Z" fill="white"/>
<path opacity="0.2" d="M530.15 408.45L537.89 392.26L530.79 418.93L530.15 408.45Z" fill="black"/>
<path opacity="0.2" d="M544.73 461.67C544.73 461.67 550.39 465.04 552.54 468.91C552.54 468.91 553.62 471.16 552.68 472.15L557 473.46V472.46C556.221 468.185 554.202 464.233 551.196 461.095C548.19 457.957 544.328 455.772 540.09 454.81L531.74 432.43L532.14 438.94L536.78 455.27C535.989 456.719 534.794 457.907 533.34 458.69C534.226 459.222 535.237 459.509 536.27 459.52C539.21 459.601 542.097 460.321 544.73 461.63" fill="black"/>
<path d="M550.84 355.79L559.67 357.72L558.32 363.8L568.32 369.29C565.337 359.77 563.767 349.865 563.66 339.89C563.66 339.89 552 340.9 550.84 355.79Z" fill="#CCFF00"/>
<path opacity="0.2" d="M550.84 355.79L559.67 357.72L558.32 363.8L568.32 369.29C565.337 359.77 563.767 349.865 563.66 339.89C563.66 339.89 552 340.9 550.84 355.79Z" fill="white"/>
<path d="M588.06 371.22V339.11C588.06 339.11 595.06 336.35 603.68 355.17L596.02 357.37C595.83 357.423 595.654 357.517 595.504 357.644C595.353 357.771 595.232 357.929 595.148 358.107C595.063 358.285 595.018 358.48 595.015 358.677C595.012 358.874 595.051 359.069 595.13 359.25L597.25 364.06L588.06 371.22Z" fill="#CCFF00"/>
<path opacity="0.2" d="M588.06 371.22V339.11C588.06 339.11 595.06 336.35 603.68 355.17L596.02 357.37C595.83 357.423 595.654 357.517 595.504 357.644C595.353 357.771 595.232 357.929 595.148 358.107C595.063 358.285 595.018 358.48 595.015 358.677C595.012 358.874 595.051 359.069 595.13 359.25L597.25 364.06L588.06 371.22Z" fill="white"/>
<path d="M137.27 247.14H750.24" stroke="#CCCCCC" stroke-width="1.97" stroke-miterlimit="10"/>
<path d="M743.72 206.96H143.79C140.189 206.96 137.27 209.879 137.27 213.48V579.69C137.27 583.291 140.189 586.21 143.79 586.21H743.72C747.321 586.21 750.24 583.291 750.24 579.69V213.48C750.24 209.879 747.321 206.96 743.72 206.96Z" stroke="#CCCCCC" stroke-width="1.97" stroke-miterlimit="10"/>
<path d="M177.67 227.46C177.67 228.569 177.341 229.654 176.725 230.576C176.108 231.499 175.232 232.218 174.207 232.643C173.182 233.067 172.054 233.178 170.966 232.962C169.878 232.745 168.878 232.211 168.093 231.426C167.309 230.642 166.774 229.642 166.558 228.554C166.342 227.466 166.453 226.338 166.877 225.313C167.302 224.288 168.021 223.411 168.943 222.795C169.866 222.179 170.951 221.85 172.06 221.85C173.548 221.85 174.975 222.441 176.027 223.493C177.079 224.545 177.67 225.972 177.67 227.46Z" fill="black"/>
<path opacity="0.2" d="M177.67 227.46C177.67 228.569 177.341 229.654 176.725 230.576C176.108 231.499 175.232 232.218 174.207 232.643C173.182 233.067 172.054 233.178 170.966 232.962C169.878 232.745 168.878 232.211 168.093 231.426C167.309 230.642 166.774 229.642 166.558 228.554C166.342 227.466 166.453 226.338 166.877 225.313C167.302 224.288 168.021 223.411 168.943 222.795C169.866 222.179 170.951 221.85 172.06 221.85C173.548 221.85 174.975 222.441 176.027 223.493C177.079 224.545 177.67 225.972 177.67 227.46Z" fill="white"/>
<path d="M199.46 227.46C199.46 228.569 199.131 229.654 198.515 230.576C197.898 231.499 197.022 232.218 195.997 232.643C194.972 233.067 193.844 233.178 192.756 232.962C191.668 232.745 190.668 232.211 189.883 231.426C189.099 230.642 188.564 229.642 188.348 228.554C188.132 227.466 188.243 226.338 188.667 225.313C189.092 224.288 189.811 223.411 190.733 222.795C191.656 222.179 192.741 221.85 193.85 221.85C195.338 221.85 196.765 222.441 197.817 223.493C198.869 224.545 199.46 225.972 199.46 227.46Z" fill="#CCCCCC"/>
<path d="M221.25 227.46C221.25 228.569 220.921 229.654 220.304 230.576C219.688 231.499 218.812 232.218 217.787 232.643C216.762 233.067 215.634 233.178 214.545 232.962C213.457 232.745 212.457 232.211 211.673 231.426C210.888 230.642 210.354 229.642 210.138 228.554C209.921 227.466 210.032 226.338 210.457 225.313C210.881 224.288 211.6 223.411 212.523 222.795C213.446 222.179 214.53 221.85 215.64 221.85C217.128 221.85 218.555 222.441 219.607 223.493C220.659 224.545 221.25 225.972 221.25 227.46Z" fill="#0A0B0B"/>
<path d="M831.24 234.54H684.45C681.142 234.54 678.46 237.222 678.46 240.53V376.49C678.46 379.798 681.142 382.48 684.45 382.48H831.24C834.548 382.48 837.23 379.798 837.23 376.49V240.53C837.23 237.222 834.548 234.54 831.24 234.54Z" fill="#EDEDED"/>
<path d="M831.24 234.54H684.45C681.142 234.54 678.46 237.222 678.46 240.53V376.49C678.46 379.798 681.142 382.48 684.45 382.48H831.24C834.548 382.48 837.23 379.798 837.23 376.49V240.53C837.23 237.222 834.548 234.54 831.24 234.54Z" stroke="#CCCCCC" stroke-width="1.97" stroke-miterlimit="10"/>
<path d="M719.26 344H796.88C800.205 344 802.9 341.305 802.9 337.98V273.87C802.9 270.545 800.205 267.85 796.88 267.85H719.26C715.935 267.85 713.24 270.545 713.24 273.87V337.98C713.24 341.305 715.935 344 719.26 344Z" fill="#CCCCCC"/>
<path d="M778.53 318.58H743.48H737.15V290.84H778.53V297.77V318.58Z" stroke="white" stroke-width="1.65" stroke-linecap="round" stroke-linejoin="round"/>
<path d="M737.15 290.84L757.84 307.14L778.53 290.84" stroke="white" stroke-width="1.65" stroke-linecap="round" stroke-linejoin="round"/>
<path d="M172.85 358.15H32.8599C29.7064 358.15 27.1499 360.707 27.1499 363.86V486.25C27.1499 489.404 29.7064 491.96 32.8599 491.96H172.85C176.003 491.96 178.56 489.404 178.56 486.25V363.86C178.56 360.707 176.003 358.15 172.85 358.15Z" fill="#EDEDED"/>
<path d="M172.85 358.15H32.8599C29.7064 358.15 27.1499 360.707 27.1499 363.86V486.25C27.1499 489.404 29.7064 491.96 32.8599 491.96H172.85C176.003 491.96 178.56 489.404 178.56 486.25V363.86C178.56 360.707 176.003 358.15 172.85 358.15Z" stroke="#CCCCCC" stroke-width="1.97" stroke-miterlimit="10"/>
<path d="M139.46 381.07H65.1898C61.5226 381.07 58.5498 384.043 58.5498 387.71V459.54C58.5498 463.207 61.5226 466.18 65.1898 466.18H139.46C143.127 466.18 146.1 463.207 146.1 459.54V387.71C146.1 384.043 143.127 381.07 139.46 381.07Z" fill="#CCCCCC"/>
<path d="M85.3499 406.92C81.8849 410.382 79.5245 414.793 78.5673 419.597C77.6101 424.401 78.0991 429.38 79.9724 433.906C81.8458 438.431 85.0193 442.3 89.0916 445.021C93.1638 447.743 97.9518 449.196 102.85 449.196C107.748 449.196 112.536 447.743 116.608 445.021C120.68 442.3 123.854 438.431 125.727 433.906C127.601 429.38 128.09 424.401 127.132 419.597C126.175 414.793 123.815 410.382 120.35 406.92C115.694 402.306 109.405 399.717 102.85 399.717C96.295 399.717 90.0055 402.306 85.3499 406.92ZM120.35 410.48H112.47C111.64 407.927 110.614 405.443 109.4 403.05C113.7 404.369 117.5 406.96 120.3 410.48H120.35ZM93.7699 423C93.7692 419.767 94.1621 416.547 94.9399 413.41H110.77C111.568 416.545 111.981 419.765 112 423H93.7699ZM111.85 425.9C111.614 429.15 111.045 432.367 110.15 435.5H95.5699C94.667 432.368 94.0939 429.151 93.8599 425.9H111.85ZM102.85 402.12C104.018 402.118 105.185 402.209 106.34 402.39C107.801 404.972 109.004 407.691 109.93 410.51H95.7699C96.6959 407.691 97.8985 404.972 99.3599 402.39C100.517 402.198 101.687 402.098 102.86 402.09L102.85 402.12ZM96.3599 403.12C95.1374 405.509 94.1107 407.994 93.2899 410.55H85.4099C88.2171 406.995 92.0399 404.379 96.3699 403.05L96.3599 403.12ZM83.4399 413.38H92.4399C91.6704 416.53 91.2578 419.757 91.2099 423H80.5699C80.7784 419.616 81.7602 416.325 83.4399 413.38ZM83.4399 435.47C81.7661 432.529 80.7845 429.246 80.5699 425.87H91.2599C91.4217 429.114 91.9245 432.331 92.7599 435.47H83.4399ZM85.4399 438.36H93.6499C94.4799 440.931 95.4822 443.443 96.6499 445.88C92.2157 444.596 88.2887 441.968 85.4099 438.36H85.4399ZM102.89 446.75C101.91 446.752 100.931 446.689 99.9599 446.56C98.6253 443.907 97.4694 441.167 96.4999 438.36H109.27C108.305 441.169 107.149 443.908 105.81 446.56C104.832 446.69 103.846 446.754 102.86 446.75H102.89ZM109.07 445.88C110.262 443.447 111.284 440.934 112.13 438.36H120.33C117.429 441.986 113.468 444.615 109 445.88H109.07ZM122.3 435.47H113C113.834 432.331 114.34 429.113 114.51 425.87H125.19C124.96 429.25 123.961 432.534 122.27 435.47H122.3ZM125.17 422.97H114.5C114.44 419.736 114.017 416.519 113.24 413.38H122.24C123.93 416.322 124.922 419.613 125.14 423L125.17 422.97Z" fill="white"/>
<path d="M187.72 172H63.2601C62.6486 172.002 62.0429 171.882 61.4776 171.649C60.9122 171.416 60.3985 171.074 59.9656 170.642C59.5327 170.21 59.1893 169.697 58.955 169.132C58.7207 168.567 58.6001 167.962 58.6001 167.35C58.5988 166.738 58.7184 166.132 58.9521 165.566C59.1859 165 59.5291 164.485 59.9621 164.052C60.395 163.619 60.9093 163.276 61.4752 163.042C62.0412 162.809 62.6478 162.689 63.2601 162.69H187.72C188.956 162.69 190.141 163.181 191.015 164.055C191.889 164.929 192.38 166.115 192.38 167.35C192.377 168.585 191.885 169.767 191.012 170.639C190.138 171.511 188.954 172 187.72 172Z" fill="#CCCCCC"/>
<path d="M834.94 476H774.53C773.297 476 772.114 475.511 771.242 474.638C770.37 473.766 769.88 472.584 769.88 471.35C769.879 470.739 769.998 470.133 770.231 469.568C770.464 469.003 770.806 468.489 771.238 468.056C771.67 467.623 772.183 467.28 772.748 467.045C773.313 466.811 773.918 466.69 774.53 466.69H834.94C836.176 466.69 837.361 467.181 838.235 468.055C839.109 468.929 839.6 470.115 839.6 471.35C839.597 472.585 839.105 473.767 838.231 474.639C837.358 475.511 836.174 476 834.94 476Z" fill="#CCCCCC"/>
<path d="M793.29 515.9H784.6C783.021 515.9 781.74 517.181 781.74 518.76V526.99C781.74 528.57 783.021 529.85 784.6 529.85H793.29C794.87 529.85 796.15 528.57 796.15 526.99V518.76C796.15 517.181 794.87 515.9 793.29 515.9Z" fill="#0A0B0B"/>
<path d="M93.5598 548.15H84.8698C83.2902 548.15 82.0098 549.431 82.0098 551.01V559.24C82.0098 560.82 83.2902 562.1 84.8698 562.1H93.5598C95.1393 562.1 96.4198 560.82 96.4198 559.24V551.01C96.4198 549.431 95.1393 548.15 93.5598 548.15Z" fill="#0A0B0B"/>
<path d="M549.08 143.09H636.45" stroke="white" stroke-width="1.18" stroke-miterlimit="10"/>
<path d="M549.08 152.05H584.67" stroke="white" stroke-width="1.18" stroke-miterlimit="10"/>
<path d="M292.59 95.7002H357.53C359.243 95.7002 360.886 96.3808 362.098 97.5923C363.309 98.8038 363.99 100.447 363.99 102.16V162.92C363.99 163.769 363.823 164.609 363.498 165.392C363.173 166.176 362.698 166.888 362.098 167.488C361.498 168.088 360.786 168.564 360.002 168.888C359.218 169.213 358.378 169.38 357.53 169.38H294.65C292.39 169.38 290.223 168.483 288.625 166.885C287.028 165.287 286.13 163.12 286.13 160.86V102.16C286.13 100.447 286.81 98.8038 288.022 97.5923C289.233 96.3808 290.877 95.7002 292.59 95.7002Z" fill="#CCCCCC"/>
<path d="M343.22 138L338.79 133.56C338.435 133.149 337.998 132.818 337.507 132.587C337.016 132.357 336.482 132.231 335.94 132.22C334.861 132.248 333.837 132.701 333.09 133.48L330.56 136L330.08 135.76C329.81 135.64 329.546 135.507 329.29 135.36C326.788 133.731 324.569 131.704 322.72 129.36C321.893 128.372 321.2 127.279 320.66 126.11C321.3 125.56 321.85 124.92 322.4 124.37L323.12 123.66C323.541 123.296 323.879 122.846 324.11 122.341C324.342 121.835 324.462 121.286 324.462 120.73C324.462 120.173 324.342 119.624 324.11 119.118C323.879 118.613 323.541 118.163 323.12 117.8L320.9 115.58C320.644 115.335 320.406 115.07 320.19 114.79L318.68 113.29C318.312 112.901 317.871 112.589 317.382 112.371C316.893 112.153 316.365 112.033 315.83 112.02C315.293 112.025 314.764 112.141 314.274 112.36C313.783 112.578 313.343 112.894 312.98 113.29L310.21 116.06C309.173 117.103 308.53 118.475 308.39 119.94C308.293 121.988 308.634 124.033 309.39 125.94C310.783 129.752 312.879 133.27 315.57 136.31C319.045 140.465 323.36 143.839 328.23 146.21C330.461 147.339 332.875 148.064 335.36 148.35H335.91C336.803 148.362 337.688 148.185 338.506 147.83C339.325 147.475 340.059 146.95 340.66 146.29L340.74 146.21C341.176 145.693 341.654 145.215 342.17 144.78L343.17 143.78C343.564 143.41 343.878 142.964 344.095 142.469C344.311 141.974 344.425 141.44 344.43 140.9C344.434 140.36 344.33 139.825 344.122 139.326C343.914 138.828 343.607 138.376 343.22 138ZM341.4 142.11L340.45 143.11C339.9 143.59 339.45 144.11 338.87 144.7C338.505 145.087 338.063 145.392 337.572 145.595C337.08 145.799 336.552 145.896 336.02 145.88H335.63C333.466 145.654 331.367 145.009 329.45 143.98C324.91 141.756 320.89 138.6 317.65 134.72C315.214 131.865 313.264 128.628 311.88 125.14C311.14 123.614 310.812 121.921 310.93 120.23C310.952 119.794 311.061 119.367 311.25 118.974C311.439 118.581 311.704 118.229 312.03 117.94L314.73 115.25C315.009 114.926 315.404 114.725 315.83 114.69C316.045 114.697 316.255 114.752 316.446 114.848C316.638 114.945 316.806 115.082 316.94 115.25L318.37 116.67C318.608 116.957 318.872 117.222 319.16 117.46L321.38 119.68C321.682 119.978 321.876 120.368 321.93 120.79C321.892 121.215 321.696 121.611 321.38 121.9L320.66 122.61L318.66 124.61L318.58 124.69C318.298 124.929 318.101 125.252 318.016 125.612C317.931 125.972 317.964 126.35 318.11 126.69V126.76C318.775 128.302 319.654 129.742 320.72 131.04C322.739 133.617 325.176 135.838 327.93 137.61C328.243 137.828 328.578 138.012 328.93 138.16C329.2 138.279 329.464 138.412 329.72 138.56L329.8 138.64C330.159 138.833 330.574 138.899 330.975 138.826C331.377 138.754 331.742 138.547 332.01 138.24L334.78 135.47C335.068 135.154 335.464 134.958 335.89 134.92C336.277 134.981 336.631 135.175 336.89 135.47L341.32 139.91C341.478 140.043 341.606 140.207 341.696 140.393C341.787 140.578 341.837 140.781 341.845 140.987C341.852 141.193 341.817 141.399 341.74 141.59C341.664 141.782 341.548 141.955 341.4 142.1V142.11Z" fill="white"/>
<path d="M311 331.18L310.88 334.44C313.284 334.837 315.752 334.569 318.015 333.665C320.278 332.761 322.251 331.254 323.72 329.31L311 331.18Z" fill="#F4A48E"/>
<path d="M341.11 310.83C340.36 314.77 337.21 317.45 334.11 316.83C333.122 316.628 332.221 316.125 331.53 315.39C329.74 325.05 323.41 332.18 315.88 332.18C306.96 332.18 299.73 322.18 299.73 309.81C299.73 297.44 306.96 287.44 315.88 287.44C323.52 287.44 329.88 294.77 331.6 304.63C332.202 303.852 333.002 303.25 333.917 302.887C334.832 302.525 335.828 302.415 336.8 302.57C339.9 303.2 341.85 306.89 341.11 310.83Z" fill="#F9B499"/>
<path d="M299.69 307.82C299.69 307.82 300.79 297.71 307.04 295.5C307.04 295.5 317.99 291.5 318.76 287.81C318.76 287.81 330.38 297.52 330.38 305.61C330.38 305.61 335.14 298.91 339.74 304.47C339.74 304.47 344.19 311.94 337.01 316.47C337.01 316.47 333.7 318.19 331.49 315.39C331.49 315.39 333.28 336.62 334.77 339.68L344.53 303L341.26 292.52L325.6 281.72H307.41C307.41 281.72 297.47 294.87 297.48 295.56C297.49 296.25 299.69 307.82 299.69 307.82Z" fill="black"/>
<path d="M431 332.67L431.7 326.97C431.7 326.97 439.52 331.55 445.61 331.97C445.56 332 443.15 334.94 431 332.67Z" fill="#F4A48E"/>
<path d="M441.16 332.67C451.184 332.67 459.31 322.149 459.31 309.17C459.31 296.191 451.184 285.67 441.16 285.67C431.136 285.67 423.01 296.191 423.01 309.17C423.01 322.149 431.136 332.67 441.16 332.67Z" fill="#F9B499"/>
<path d="M461.5 316.08C464.201 316.08 466.39 313.027 466.39 309.26C466.39 305.494 464.201 302.44 461.5 302.44C458.799 302.44 456.61 305.494 456.61 309.26C456.61 313.027 458.799 316.08 461.5 316.08Z" fill="#F9B499"/>
<path d="M420.49 316.08C423.191 316.08 425.38 313.027 425.38 309.26C425.38 305.494 423.191 302.44 420.49 302.44C417.789 302.44 415.6 305.494 415.6 309.26C415.6 313.027 417.789 316.08 420.49 316.08Z" fill="#F9B499"/>
<path d="M423.91 306.16C423.91 306.16 412.13 294.95 423.91 286.31C423.91 286.31 427.06 270.5 447.09 274.55C447.09 274.55 466.54 274.65 462.79 302.44C461.472 303.8 460.04 305.045 458.51 306.16C458.51 306.16 457.02 296.97 449.67 297.34C449.67 297.34 433.67 298.07 430.55 291.09C427.146 295.5 424.867 300.673 423.91 306.16Z" fill="#0A0B0B"/>
<path d="M586.27 337.87L586.37 335.78C586.37 335.78 573.59 336.22 570.3 328.6C570.3 328.6 572.38 338 586.27 337.87Z" fill="#F4A48E"/>
<path d="M600.12 314.31C600.12 326.39 592.53 336.18 583.12 336.18C575.22 336.18 568.57 329.18 566.68 319.81C565.883 320.485 564.875 320.86 563.83 320.87C560.77 320.87 558.29 317.58 558.29 313.51C558.29 309.44 560.77 306.16 563.83 306.16C565.013 306.181 566.144 306.653 566.99 307.48C569.22 298.75 575.6 292.48 583.12 292.48C592.53 292.45 600.12 302.24 600.12 314.31Z" fill="#F9B499"/>
<path d="M570.16 308L571.64 298.24C571.64 298.24 580.03 299.8 584.82 296.94C584.82 296.94 596.14 305.17 605.14 296.94C605.14 296.94 610.8 291.28 605.14 283.57C605.14 283.57 603.08 277.13 591.25 281.25C591.25 281.25 578.65 269.42 568.1 284.08C568.1 284.08 555.26 283.35 558.32 295.14C558.32 295.14 549.82 302.28 559.32 309.25C559.32 309.25 552.32 324.41 567.26 322.12L566.68 319.8C566.68 319.8 561.9 323.14 559.05 317.2C559.05 317.2 556.43 310.83 560.93 307.25C561.553 306.676 562.333 306.302 563.17 306.173C564.007 306.045 564.864 306.169 565.63 306.53C566.93 307.192 568.317 307.667 569.75 307.94L570.16 308Z" fill="#0A0B0B"/>
</svg>
